<svg xmlns="http://www.w3.org/2000/svg" viewBox="0 0 640 512"><path d="M272.4 226.4c9-3.9 13.1-14.4 9.1-23.3v-.1l-4-9.1c4.1-1.2 8.2-2.3 12.4-3.1 12.1-2.1 23.7-6.8 33.8-13.8l10 9c7.3 6.6 18.5 6.1 25.1-1.2 6.6-7.3 6.1-18.5-1.2-25.1l-9.7-8.8c8.7-14.5 12.8-31.3 11.6-48.2l11.9-3.5c9.4-2.8 14.7-12.7 11.9-22.1-2.8-9.4-12.7-14.7-22.1-11.9l-11.3 3.4C341.7 53.3 329 40.8 313.5 33l2.8-10.9c2.5-9.5-3.3-19.2-12.8-21.7s-19.2 3.3-21.7 12.8L279 24.1c-5.6-.2-11.2.2-16.7 1.1-11.4 1.8-22.2 5-33.1 8.2l-3.4-9.5c-3.3-9.3-13.5-14.1-22.7-10.8-9.3 3.3-14.1 13.5-10.8 22.7l3.5 9.8c-15.3 6.6-30 14.5-43.9 23.6l-6.3-8.4c-5.9-7.8-17-9.4-24.9-3.6-7.8 5.8-9.5 16.9-3.7 24.7 0 0 0 .1.1.1l6.4 8.6c-12.7 10.7-24.3 22.6-34.9 35.3l-8.8-6.4c-7.9-5.8-19.1-4.1-24.9 3.9-5.8 7.9-4.1 18.9 3.8 24.7l.1.1 8.9 6.5c-8.9 13.9-16.6 28.6-23 43.9L34.2 195c-9.3-3.2-19.4 1.7-22.6 11-3.2 9.3 1.7 19.4 11 22.6l10.3 3.5c-2.8 10-5.8 19.8-7.5 30.2-1 6.3-1.3 12.7-.8 19L13 284.7c-9.6 2.7-15 12.6-12.2 22 2.8 9.4 12.7 14.7 22.1 11.9l11.3-3.3c8.2 15.3 20.9 27.7 36.4 35.4l-2.9 11.1c-2.3 9.6 3.6 19.2 13.1 21.5 9.3 2.3 18.8-3.3 21.3-12.6l2.9-11c1 0 2.1.3 3.1.3 16.2-.1 32.1-4.9 45.7-13.9l8.6 8.8c6.8 7.1 18.1 7.3 25.1.4s7.3-18.1.4-25.1l-9.1-9.4c6.1-9.4 10.2-20 12.1-31 .9-5.3 2.2-10.4 3.9-15.5l9 4.2c8.9 4.2 19.4.4 23.6-8.5 4.2-8.9.4-19.4-8.5-23.6l-8.8-4.1c.7-1 1.2-2.1 1.9-3.1 2.5-3.3 5.1-6.4 7.9-9.4 3.6-4.1 7.5-7.9 11.6-11.4 3.2-2.8 6.5-5.4 9.9-7.8 1.1-.8 2.3-1.4 3.5-2.1l3.9 8.9c2.9 6.4 9.3 10.6 16.3 10.6 2.5-.1 5-.6 7.3-1.6zM128 256c-17.7 0-32-14.3-32-32s14.3-32 32-32 32 14.3 32 32-14.3 32-32 32zm80-96c-8.8 0-16-7.2-16-16s7.2-16 16-16 16 7.2 16 16-7.2 16-16 16zm431.3 45.3c-2.3-7.5-9.2-12.7-17.1-12.7-1.7 0-3.4.2-5.1.7l-11.3 3.3c-8.2-15.3-20.9-27.7-36.4-35.4l2.9-11.1c2.3-9.6-3.7-19.2-13.2-21.4-9.3-2.2-18.7 3.3-21.3 12.5l-2.9 11c-1 0-2.1-.3-3.1-.3-16.2.1-32.1 4.9-45.6 13.9l-8.6-8.8c-6.8-7.1-18.1-7.3-25.1-.4-7.1 6.8-7.3 18.1-.4 25.1l9.1 9.4c-6.1 9.4-10.2 20-12.1 31.1-.9 5.3-2.2 10.4-3.9 15.5l-9-4.2c-8.9-4.2-19.4-.4-23.6 8.5s-.4 19.4 8.5 23.6l8.8 4.1c-.7 1-1.2 2.1-1.9 3-2.5 3.3-5.1 6.5-7.9 9.5-3.6 4-7.5 7.8-11.6 11.3-3.2 2.8-6.5 5.4-10 7.8-1.1.8-2.3 1.4-3.5 2.1l-3.9-8.9c-2.9-6.4-9.3-10.6-16.3-10.6-2.5 0-4.9.5-7.2 1.5-9 3.9-13 14.4-9.1 23.3l4 9.1c-4.1 1.2-8.2 2.3-12.4 3.1-12.1 2.1-23.7 6.8-33.8 13.9l-10-9c-7.2-6.7-18.4-6.4-25.1.8s-6.4 18.4.8 25.1c.1.1.3.2.4.4l9.7 8.8c-8.7 14.5-12.8 31.3-11.6 48.2l-11.9 3.5c-9.4 2.8-14.7 12.7-11.9 22.1 2.8 9.4 12.7 14.7 22.1 11.9l11.3-3.4c8.2 15.3 20.9 27.8 36.4 35.6l-2.8 10.9c-2.5 9.5 3.3 19.2 12.8 21.7s19.2-3.3 21.7-12.8l2.8-10.8c5.6.2 11.2-.2 16.7-1.1 11.4-1.9 22.2-5.1 33.1-8.2l3.4 9.5c3.3 9.3 13.5 14.1 22.7 10.8s14.1-13.5 10.8-22.7l-3.5-9.8c15.3-6.6 30-14.5 43.9-23.6l6.3 8.4c5.9 7.8 17 9.5 24.9 3.6 7.9-5.8 9.5-16.8 3.8-24.7 0-.1-.1-.1-.1-.2l-6.5-8.6c12.6-10.7 24.3-22.6 35-35.3l8.8 6.4c7.7 6 18.9 4.6 24.9-3.1 6-7.7 4.6-18.9-3.1-24.9-.3-.2-.5-.4-.8-.6l-8.9-6.5c8.9-13.9 16.6-28.6 23-43.9l10.5 3.6c9.3 3.2 19.4-1.7 22.6-11 3.2-9.3-1.7-19.4-11-22.6l-10.3-3.5c2.8-10 5.8-19.8 7.5-30.2 1-6.3 1.3-12.7.8-19.1l11.6-3.4c9.5-2.5 14.9-12.4 12.2-21.8zM416 416c-17.7 0-32-14.3-32-32s14.3-32 32-32 32 14.3 32 32-14.3 32-32 32z"/></svg>